<svg xmlns="http://www.w3.org/2000/svg" viewBox="0 0 512 512" width="100%" height="100%">
  <rect width="512" height="512" rx="128" fill="#0A0A0A" />
  <rect x="16" y="16" width="480" height="480" rx="112" fill="none" stroke="#D4AF37" stroke-width="6" stroke-opacity="0.35" />
  <!-- Shield outline -->
  <path d="M256 70 L390 120 V250 C390 340 330 405 256 440 C182 405 122 340 122 250 V120 Z" fill="#141414" stroke="#D4AF37" stroke-width="8" stroke-linejoin="round" />
  <!-- Car Silhouette / Speedometer inside shield -->
  <path d="M190 290 L210 240 Q220 220 256 220 Q292 220 302 240 L322 290 Z" fill="none" stroke="#D4AF37" stroke-width="7" stroke-linecap="round" />
  <path d="M170 300 H342 C350 300 356 306 354 314 L346 336 C344 342 338 346 332 346 H180 C174 346 168 342 166 336 L158 314 C156 306 162 300 170 300 Z" fill="#D4AF37" />
  <!-- Headlights -->
  <circle cx="195" cy="323" r="10" fill="#0A0A0A" />
  <circle cx="317" cy="323" r="10" fill="#0A0A0A" />
  <circle cx="195" cy="323" r="5" fill="#FFF" />
  <circle cx="317" cy="323" r="5" fill="#FFF" />
  <!-- Speedometer needle / Star -->
  <polygon points="256,150 263,172 286,172 267,185 274,207 256,194 238,207 245,185 226,172 249,172" fill="#D4AF37" />
</svg>
